# xmcd
#
# Track frame offsets: 
#        150
#        13499
#        34751
#        57886
#        69360
#        99840
#        129820
#        152275
#        172457
#        187798
#
# Disc length: 2803 seconds
#
# Revision: 0
# Processed by: cddbd v1.4PL0 Copyright (c) Steve Scherf et al.
# Submitted via: ExactAudioCopy v0.90b2
#
DISCID=760af10a
DTITLE=John Lee Hooker - Mr Lucky
DYEAR=1991
DGENRE=
TTITLE0=I Want To Hug You
TTITLE1=Mr Lucky
TTITLE2=Backstabbers
TTITLE3=This Is Hip
TTITLE4=I Cover The Waterfront
TTITLE5=Highway 13
TTITLE6=Stripped Me Naked
TTITLE7=Suzie
TTITLE8=Crawling Kingsnake
TTITLE9=Father Was A Jockey
EXTD=
EXTT0=
EXTT1=
EXTT2=
EXTT3=
EXTT4=
EXTT5=
EXTT6=
EXTT7=
EXTT8=
EXTT9=
PLAYORDER=
